<svg xmlns="http://www.w3.org/2000/svg" viewBox="0 0 596 596" width="596" height="596">
  <rect data-index="0" x="0" y="0" width="100" height="100" rx="18" fill="currentColor"/>
  <rect data-index="1" x="124" y="0" width="100" height="100" rx="18" fill="currentColor"/>
  <rect data-index="2" x="372" y="0" width="100" height="100" rx="18" fill="currentColor"/>
  <rect data-index="3" x="496" y="0" width="100" height="100" rx="18" fill="currentColor"/>
  <rect data-index="4" x="0" y="124" width="100" height="100" rx="18" fill="currentColor"/>
  <rect data-index="5" x="248" y="124" width="100" height="100" rx="18" fill="currentColor"/>
  <rect data-index="6" x="496" y="124" width="100" height="100" rx="18" fill="currentColor"/>
  <rect data-index="7" x="124" y="248" width="100" height="100" rx="18" fill="currentColor"/>
  <rect data-index="8" x="248" y="248" width="100" height="100" rx="18" fill="currentColor"/>
  <rect data-index="9" x="372" y="248" width="100" height="100" rx="18" fill="currentColor"/>
  <rect data-index="10" x="0" y="372" width="100" height="100" rx="18" fill="currentColor"/>
  <rect data-index="11" x="248" y="372" width="100" height="100" rx="18" fill="currentColor"/>
  <rect data-index="12" x="496" y="372" width="100" height="100" rx="18" fill="currentColor"/>
  <rect data-index="13" x="0" y="496" width="100" height="100" rx="18" fill="currentColor"/>
  <rect data-index="14" x="124" y="496" width="100" height="100" rx="18" fill="currentColor"/>
  <rect data-index="15" x="372" y="496" width="100" height="100" rx="18" fill="currentColor"/>
  <rect data-index="16" x="496" y="496" width="100" height="100" rx="18" fill="currentColor"/>
</svg>
